<?xml version="1.0" encoding="iso-8859-1"?>
<!-- Uploaded to: SVG Repo, www.svgrepo.com, Generator: SVG Repo Mixer Tools -->
<svg height="800px" width="800px" version="1.1" id="Layer_1" xmlns="http://www.w3.org/2000/svg" xmlns:xlink="http://www.w3.org/1999/xlink" 
	 viewBox="0 0 512 512" xml:space="preserve">
<path style="fill:#47CEAC;" d="M512,256.006C512,397.402,397.394,512.004,256.004,512C114.606,512.004,0,397.402,0,256.006
	C-0.007,114.61,114.606,0,256.004,0C397.394,0,512,114.614,512,256.006z"/>
<path style="fill:#36BB9A;" d="M512,256.005c0-9.653-0.582-19.167-1.622-28.544c-0.22-0.21-0.434-0.426-0.644-0.644
	c-0.345-0.41-0.768-0.753-1.14-1.141c-0.343-0.407-121.333-121.317-121.705-121.703c-0.343-0.407-0.766-0.751-1.137-1.137
	c-5.093-6.048-13.359-9.87-21.063-9.87H147.312c-12.273,0-25.994,9.684-25.994,22.65v8.794
	c-7.939,4.528-14.176,13.438-14.176,22.322v3.079c-11.836,0.72-21.266,10.477-21.266,22.492v224.104
	c0,6.53,2.82,12.375,7.258,16.509c0.367,0.394,0.743,0.77,1.137,1.137c0.367,0.394,86.051,86.078,86.445,86.445
	c0.107,0.114,0.222,0.218,0.33,0.33c23.71,7.249,48.873,11.173,74.957,11.173C397.394,512.004,512,397.401,512,256.005z"/>
<path style="fill:#F4F6F9;" d="M404.858,149.81v-3.079c0-8.884-6.238-17.794-14.177-22.322v-8.794
	c0-12.965-13.721-22.65-25.994-22.65H147.313c-12.273,0-25.994,9.684-25.994,22.65v8.794c-7.939,4.528-14.177,13.438-14.177,22.322
	v3.079c-11.836,0.72-21.265,10.478-21.265,22.492v224.103c0,12.481,10.148,22.629,22.629,22.629h294.988
	c12.481,0,22.629-10.148,22.629-22.629V172.302C426.123,160.288,416.693,150.531,404.858,149.81z M100.053,173.959l112.943,114.862
	L100.053,395.12V173.959z M265.767,302.407c-5.469,5.296-14.052,5.31-19.41,0.125L109.995,163.85h292.011L265.767,302.407z
	 M222.943,298.935l13.433,13.661c5.489,5.31,12.523,7.974,19.577,7.974c7.102,0,14.219-2.7,19.797-8.099l10.074-10.244
	l115.459,102.63H110.4L222.943,298.935z M295.771,292.111l116.176-118.151v221.419L295.771,292.111z M147.313,107.142h217.375
	c5.413,0,11.817,4.59,11.817,8.473v5.703H135.497v-5.703C135.497,111.732,141.9,107.142,147.313,107.142z M131.786,135.497h248.429
	c4.499,0,10.466,6.403,10.466,11.235v2.942H121.319v-2.942C121.319,141.9,127.286,135.497,131.786,135.497z"/>
</svg>