<svg id="visual" viewBox="0 0 900 600" width="900" height="600" xmlns="http://www.w3.org/2000/svg" xmlns:xlink="http://www.w3.org/1999/xlink" version="1.1"><g><g transform="translate(731 193)"><path d="M64.9 -52.2C78.2 -35.2 78.9 -8.5 72.2 14.7C65.5 37.9 51.4 57.7 31.4 68.6C11.5 79.5 -14.4 81.5 -35.4 72C-56.5 62.5 -72.7 41.4 -77.4 18.4C-82 -4.5 -74.9 -29.3 -60.1 -46.7C-45.3 -64.1 -22.6 -74.1 1.6 -75.3C25.8 -76.6 51.7 -69.2 64.9 -52.2Z" fill="#bacdae"></path></g><g transform="translate(476 427)"><path d="M53.5 -39.1C69.5 -22.7 82.6 -0.4 78.1 17.1C73.5 34.7 51.3 47.5 30.4 54.1C9.4 60.7 -10.1 61.2 -27.3 54C-44.6 46.8 -59.4 31.9 -65.7 12.6C-71.9 -6.6 -69.6 -30.1 -57.2 -45.8C-44.8 -61.4 -22.4 -69.2 -1.8 -67.7C18.8 -66.3 37.6 -55.6 53.5 -39.1Z" fill="#bacdae"></path></g><g transform="translate(290 157)"><path d="M54.6 -48.2C64.4 -31.4 61.3 -9 56.3 12.8C51.3 34.7 44.3 56.1 28.6 66.4C12.8 76.7 -11.7 75.9 -28 65.3C-44.3 54.7 -52.5 34.3 -57.7 12.8C-62.8 -8.6 -65 -31.1 -54.9 -48C-44.8 -64.9 -22.4 -76.3 0 -76.3C22.5 -76.4 44.9 -65.1 54.6 -48.2Z" fill="#bacdae"></path></g><g transform="translate(206 459)"><path d="M56.4 -45.3C70.8 -26.8 78.8 -3.5 75.3 19.2C71.7 42 56.6 64.1 34.8 76.1C12.9 88.1 -15.7 90 -36.5 78.8C-57.4 67.6 -70.6 43.4 -76.3 17.6C-81.9 -8.1 -80.1 -35.3 -66.2 -53.7C-52.2 -72.1 -26.1 -81.7 -2.6 -79.6C20.9 -77.6 41.9 -63.9 56.4 -45.3Z" fill="#bacdae"></path></g><g transform="translate(68 46)"><path d="M71 -53.1C87.7 -35.6 93.9 -6.4 85.9 15.9C77.8 38.2 55.5 53.4 32.9 61.8C10.3 70.2 -12.5 71.8 -29 62.8C-45.5 53.9 -55.7 34.5 -61.1 13.3C-66.4 -7.9 -66.9 -30.8 -55.9 -47C-44.9 -63.1 -22.5 -72.4 2.3 -74.3C27.1 -76.2 54.3 -70.5 71 -53.1Z" fill="#bacdae"></path></g><g transform="translate(815 578)"><path d="M70.3 -54.9C83.5 -39.6 81.2 -10.8 73.6 14.6C66 40 53.3 62 34.9 69.9C16.5 77.8 -7.5 71.5 -29.9 61.1C-52.4 50.7 -73.4 36.1 -77.2 18C-81.1 -0.1 -67.8 -21.8 -52 -37.6C-36.3 -53.4 -18.1 -63.4 5.2 -67.6C28.6 -71.7 57.2 -70.1 70.3 -54.9Z" fill="#bacdae"></path></g></g></svg>