<svg style="width: 200px;" id="bestSVG" width="358" height="113" viewBox="0 0 358 113" fill="none" xmlns="http://www.w3.org/2000/svg">
    <mask id="path-1-inside-1_6_30" fill="white">
    <path d="M0.148438 36.8867C0.09375 36.668 0.09375 36.3672 0.148438 35.9844C0.203125 35.5469 0.285156 35.1094 0.394531 34.6719C0.503906 34.1797 0.640625 33.7422 0.804688 33.3594C0.96875 32.9766 1.13281 32.7305 1.29688 32.6211C1.29688 32.5664 1.46094 32.5117 1.78906 32.457C2.17188 32.3477 2.47266 32.293 2.69141 32.293C3.56641 32.293 4.25 32.5391 4.74219 33.0312C5.23438 33.5234 5.69922 34.0703 6.13672 34.6719C6.62891 35.2188 7.17578 35.7383 7.77734 36.2305C8.43359 36.7227 9.33594 36.9688 10.4844 36.9688C13.5469 36.9688 16.3633 36.4492 18.9336 35.4102C21.5586 34.3711 23.9922 33.25 26.2344 32.0469C28.5312 30.7891 30.6914 29.6406 32.7148 28.6016C34.793 27.5625 36.8164 27.043 38.7852 27.043C38.7852 27.8086 38.4297 28.6289 37.7188 29.5039C37.0625 30.3789 36.2422 31.2266 35.2578 32.0469C34.3281 32.8672 33.3438 33.6055 32.3047 34.2617C31.3203 34.918 30.5273 35.4102 29.9258 35.7383C28.1211 36.832 26.4805 37.7617 25.0039 38.5273C23.5273 39.2383 22.0234 39.8672 20.4922 40.4141C18.9609 40.9062 17.3477 41.2891 15.6523 41.5625C13.957 41.8359 11.9883 42.0273 9.74609 42.1367C9.96484 42.4102 10.375 42.8477 10.9766 43.4492C11.5781 44.0508 12.207 44.707 12.8633 45.418C13.5742 46.0742 14.2305 46.7031 14.832 47.3047C15.4336 47.9062 15.8711 48.3164 16.1445 48.5352C16.6367 48.9727 17.2109 49.3008 17.8672 49.5195C18.5234 49.6836 19.1797 49.793 19.8359 49.8477C20.5469 49.8477 21.2305 49.8203 21.8867 49.7656C22.5977 49.7109 23.2539 49.6836 23.8555 49.6836C25.2227 49.6836 26.8086 49.6016 28.6133 49.4375C30.4727 49.2188 32.2773 48.8633 34.0273 48.3711C35.7773 47.8242 37.3359 47.0586 38.7031 46.0742C40.125 45.0898 41.1094 43.7773 41.6562 42.1367C41.7656 41.8086 41.957 41.125 42.2305 40.0859C42.5586 39.0469 42.9414 37.8438 43.3789 36.4766C43.8164 35.1094 44.2812 33.6328 44.7734 32.0469C45.2656 30.4609 45.7305 28.9844 46.168 27.6172C46.6055 26.25 46.9883 25.0469 47.3164 24.0078C47.6992 22.9688 47.9453 22.2852 48.0547 21.957C49.0391 19.9883 50.1875 17.9375 51.5 15.8047C52.8672 13.6172 54.3711 11.5938 56.0117 9.73438C57.6523 7.82031 59.4023 6.15234 61.2617 4.73047C63.1211 3.25391 65.0625 2.24219 67.0859 1.69531C69 1.69531 70.3672 2.35156 71.1875 3.66406C72.0625 4.97656 72.5 6.45312 72.5 8.09375C72.5 12.1953 71.6523 16.1875 69.957 20.0703C68.2617 23.9531 66.1016 27.6445 63.4766 31.1445C60.9062 34.6445 58.0352 37.8711 54.8633 40.8242C51.7461 43.7773 48.7383 46.3477 45.8398 48.5352C45.8398 48.6992 45.7852 48.9453 45.6758 49.2734C45.6211 49.5469 45.5391 49.8477 45.4297 50.1758C45.3203 50.5039 45.2109 50.832 45.1016 51.1602C44.9922 51.4336 44.9102 51.625 44.8555 51.7344C44.8008 51.7891 44.7461 51.8164 44.6914 51.8164H44.4453C44.3359 51.8164 44.1992 51.8164 44.0352 51.8164C43.9258 51.7617 43.8438 51.7344 43.7891 51.7344C43.5156 51.6797 42.9688 51.5156 42.1484 51.2422C41.3828 50.9688 40.8633 50.7773 40.5898 50.668C40.0977 50.832 39.25 51.1328 38.0469 51.5703C36.8438 52.0078 35.5586 52.4453 34.1914 52.8828C32.8242 53.3203 31.5391 53.7305 30.3359 54.1133C29.1328 54.4961 28.2852 54.7695 27.793 54.9336C27.6836 54.9883 27.4102 55.0703 26.9727 55.1797C26.5352 55.2344 26.0156 55.3164 25.4141 55.4258C24.8672 55.5352 24.3203 55.6445 23.7734 55.7539C23.2266 55.8633 22.8164 55.9453 22.543 56H21.9688C19.4531 56 17.0742 55.3984 14.832 54.1953C12.5898 52.9375 10.5391 51.3789 8.67969 49.5195C6.875 47.6055 5.23438 45.5273 3.75781 43.2852C2.33594 41.043 1.13281 38.9102 0.148438 36.8867ZM68.6445 6.69922C66.8398 6.69922 65.0352 7.32812 63.2305 8.58594C61.4805 9.78906 59.7852 11.375 58.1445 13.3438C56.5586 15.3125 55.082 17.5547 53.7148 20.0703C52.3477 22.5312 51.1445 25.0195 50.1055 27.5352C49.1211 29.9961 48.3281 32.4023 47.7266 34.7539C47.1797 37.0508 46.9062 38.9922 46.9062 40.5781C46.9062 40.6875 46.9062 40.7969 46.9062 40.9062C46.9609 41.0156 46.9883 41.0977 46.9883 41.1523C50.1055 39.293 52.9766 37.1602 55.6016 34.7539C58.2266 32.293 60.4961 29.5859 62.4102 26.6328C64.3789 23.6797 65.9102 20.5352 67.0039 17.1992C68.0977 13.8633 68.6445 10.3633 68.6445 6.69922Z"/>
    <path d="M87.9219 16.1328C87.9219 16.9531 87.8125 17.8008 87.5938 18.6758C87.4297 19.5508 87.1016 20.3711 86.6094 21.1367C86.1172 21.9023 85.4609 22.5312 84.6406 23.0234C83.8203 23.5156 82.7812 23.7617 81.5234 23.7617C81.5234 22.9961 81.6055 22.3125 81.7695 21.7109C81.9336 21.0547 82.125 20.4258 82.3438 19.8242C82.5625 19.168 82.7539 18.5117 82.918 17.8555C83.082 17.1445 83.1641 16.3789 83.1641 15.5586C83.1641 13.918 82.8906 12.6328 82.3438 11.7031C81.7969 10.7188 81.1953 9.95312 80.5391 9.40625C79.9375 8.80469 79.3633 8.33984 78.8164 8.01172C78.2695 7.68359 77.9961 7.30078 77.9961 6.86328C77.9961 6.37109 78.1328 5.90625 78.4062 5.46875C78.7344 5.03125 79.2812 4.8125 80.0469 4.8125C81.5234 4.8125 82.7539 5.25 83.7383 6.125C84.7773 6.94531 85.5977 7.95703 86.1992 9.16016C86.8008 10.3633 87.2383 11.6211 87.5117 12.9336C87.7852 14.1914 87.9219 15.2578 87.9219 16.1328Z"/>
    <path d="M130.004 56.082C128.965 56.082 128.008 55.8906 127.133 55.5078C126.312 55.125 125.629 54.5781 125.082 53.8672C124.535 53.1562 124.152 52.3633 123.934 51.4883C123.715 50.5586 123.742 49.5742 124.016 48.5352C124.016 46.7852 124.316 45.1719 124.918 43.6953C125.574 42.1641 126.285 40.7148 127.051 39.3477C127.871 37.9258 128.582 36.5312 129.184 35.1641C129.84 33.7422 130.168 32.2383 130.168 30.6523C128.965 30.6523 127.68 31.0352 126.312 31.8008C124.945 32.5664 123.551 33.5781 122.129 34.8359C120.762 36.0938 119.395 37.5156 118.027 39.1016C116.715 40.6328 115.457 42.1914 114.254 43.7773C113.105 45.3086 112.094 46.7852 111.219 48.207C110.398 49.6289 109.77 50.8047 109.332 51.7344C109.223 51.7891 108.949 51.8438 108.512 51.8984C108.074 51.8984 107.801 51.8984 107.691 51.8984C106.816 52.3359 106.27 52.3359 106.051 51.8984C105.887 51.4062 105.887 50.668 106.051 49.6836C106.27 48.6992 106.598 47.6055 107.035 46.4023C107.473 45.1445 107.883 43.9688 108.266 42.875C108.703 41.7266 109.031 40.7969 109.25 40.0859C109.469 39.3203 109.496 38.9375 109.332 38.9375C109.496 38.7188 109.688 38.3633 109.906 37.8711C110.125 37.3789 110.344 36.8594 110.562 36.3125C110.781 35.7656 110.973 35.2734 111.137 34.8359C111.301 34.3438 111.383 33.9609 111.383 33.6875C111.383 33.1953 111.191 32.8945 110.809 32.7852C110.48 32.6211 110.152 32.5391 109.824 32.5391C108.84 31.9922 107.773 32.3203 106.625 33.5234C105.531 34.6719 104.328 36.3398 103.016 38.5273C101.758 40.6602 100.363 43.1211 98.832 45.9102C97.3555 48.6445 95.7148 51.2969 93.9102 53.8672C92.6523 53.8672 91.6953 53.7031 91.0391 53.375C90.3828 53.0469 90.0547 52.2266 90.0547 50.9141C90.4922 50.3125 91.1484 49.1914 92.0234 47.5508C92.8984 45.8555 93.8828 43.9961 94.9766 41.9727C96.0703 39.9492 97.2188 37.8984 98.4219 35.8203C99.6797 33.7422 100.855 31.9922 101.949 30.5703C103.098 29.0938 104.109 28.1094 104.984 27.6172C105.914 27.0703 106.652 27.3164 107.199 28.3555C108.129 27.7539 109.141 27.2344 110.234 26.7969C111.383 26.3594 112.531 26.1406 113.68 26.1406C114.445 26.1406 115.074 26.3867 115.566 26.8789C116.113 27.3164 116.523 27.8906 116.797 28.6016C117.125 29.2578 117.371 29.9688 117.535 30.7344C117.699 31.4453 117.781 32.0742 117.781 32.6211C118.383 32.2383 119.367 31.582 120.734 30.6523C122.156 29.668 123.66 28.6836 125.246 27.6992C126.887 26.7148 128.473 25.8672 130.004 25.1562C131.59 24.3906 132.875 24.0078 133.859 24.0078C134.734 24.0078 135.473 24.3359 136.074 24.9922C136.73 25.5938 137.059 26.3594 137.059 27.2891C135.09 32.1016 133.531 35.957 132.383 38.8555C131.289 41.7539 130.551 44.0234 130.168 45.6641C129.84 47.25 129.84 48.3984 130.168 49.1094C130.551 49.7656 131.207 50.2852 132.137 50.668C133.613 50.668 135.035 50.4219 136.402 49.9297C137.77 49.4375 139.109 48.8906 140.422 48.2891C141.789 47.6875 143.156 47.1406 144.523 46.6484C145.891 46.1562 147.34 45.9102 148.871 45.9102C148.871 46.5117 148.707 47.0859 148.379 47.6328C148.105 48.125 147.668 48.5078 147.066 48.7812C146.629 49.0547 145.836 49.4922 144.688 50.0938C143.594 50.6406 142.391 51.2422 141.078 51.8984C139.766 52.5 138.508 53.1016 137.305 53.7031C136.156 54.3047 135.336 54.7148 134.844 54.9336C133.75 55.4258 132.902 55.7539 132.301 55.918C131.754 56.0273 130.988 56.082 130.004 56.082Z"/>
    <path d="M188.656 46.8945C189.039 43.7227 189.723 40.7148 190.707 37.8711C191.691 34.9727 192.895 32.1836 194.316 29.5039C195.738 26.7695 197.324 24.0898 199.074 21.4648C200.824 18.8398 202.684 16.1875 204.652 13.5078C205.801 12.0312 207.059 10.5273 208.426 8.99609C209.793 7.46484 211.27 6.07031 212.855 4.8125C214.441 3.55469 216.137 2.54297 217.941 1.77734C219.801 0.957031 221.742 0.546875 223.766 0.546875C224.859 0.546875 225.707 0.628906 226.309 0.792969C226.91 0.902344 227.348 1.17578 227.621 1.61328C227.949 1.99609 228.141 2.57031 228.195 3.33594C228.25 4.10156 228.25 5.08594 228.195 6.28906C228.195 7.65625 227.949 9.05078 227.457 10.4727C226.965 11.8945 226.281 13.2344 225.406 14.4922C224.531 15.75 223.492 16.8711 222.289 17.8555C221.086 18.7852 219.801 19.4688 218.434 19.9062V18.7578C218.434 17.6094 218.68 16.5156 219.172 15.4766C219.719 14.4375 220.32 13.3984 220.977 12.3594C221.633 11.2656 222.207 10.1445 222.699 8.99609C223.246 7.84766 223.52 6.61719 223.52 5.30469C222.918 5.30469 222.398 5.27734 221.961 5.22266C221.523 5.11328 221.113 5.05859 220.73 5.05859C220.402 5.00391 220.047 5.05859 219.664 5.22266C219.336 5.33203 218.926 5.60547 218.434 6.04297C215.754 8.23047 212.992 10.8008 210.148 13.7539C207.359 16.6523 204.816 19.7969 202.52 23.1875C200.223 26.5781 198.336 30.1328 196.859 33.8516C195.438 37.5156 194.727 41.207 194.727 44.9258C194.727 45.0898 194.727 45.3633 194.727 45.7461C194.781 46.1289 194.809 46.5117 194.809 46.8945C194.863 47.2773 194.918 47.6328 194.973 47.9609C195.027 48.2891 195.055 48.4805 195.055 48.5352C195.656 49.1367 196.367 49.4922 197.188 49.6016C198.062 49.7109 198.719 49.7656 199.156 49.7656C201.508 49.7656 203.695 49.3555 205.719 48.5352C207.797 47.7148 209.82 46.8398 211.789 45.9102C213.758 44.9258 215.727 44.0234 217.695 43.2031C219.719 42.3828 221.852 41.9727 224.094 41.9727C224.094 42.8477 223.574 43.832 222.535 44.9258C221.551 45.9648 220.238 47.0039 218.598 48.043C217.012 49.082 215.234 50.0938 213.266 51.0781C211.297 52.0078 209.355 52.8555 207.441 53.6211C205.582 54.3867 203.859 54.9883 202.273 55.4258C200.742 55.8633 199.566 56.082 198.746 56.082C197.543 56.082 196.34 55.8633 195.137 55.4258C193.934 54.9336 192.84 54.2773 191.855 53.457C190.926 52.6367 190.16 51.6797 189.559 50.5859C188.957 49.4375 188.656 48.207 188.656 46.8945Z"/>
    <path d="M225.324 50.668C225.816 47.5508 226.746 44.6797 228.113 42.0547C229.48 39.4297 231.039 37.1602 232.789 35.2461C234.594 33.2773 236.535 31.6641 238.613 30.4062C240.691 29.1484 242.715 28.3555 244.684 28.0273C246.652 27.6445 248.457 27.7266 250.098 28.2734C251.793 28.8203 253.16 29.9141 254.199 31.5547C254.199 32.8125 253.898 34.0156 253.297 35.1641C252.75 36.3125 252.121 37.4609 251.41 38.6094C250.754 39.7578 250.125 40.9336 249.523 42.1367C248.977 43.3398 248.703 44.625 248.703 45.9922C248.703 47.4141 249.004 48.5625 249.605 49.4375C250.262 50.2578 251.383 50.668 252.969 50.668C254.281 50.668 255.539 50.4766 256.742 50.0938C258 49.7109 259.258 49.5195 260.516 49.5195C260.734 49.5195 261.09 49.5469 261.582 49.6016C262.129 49.6016 262.484 49.6016 262.648 49.6016C261.992 50.5312 261.145 51.3242 260.105 51.9805C259.066 52.6367 257.973 53.2109 256.824 53.7031C255.676 54.1406 254.473 54.4688 253.215 54.6875C252.012 54.9062 250.891 55.0156 249.852 55.0156C248.867 55.0156 247.992 54.7969 247.227 54.3594C246.461 53.9219 245.805 53.3477 245.258 52.6367C244.711 51.9258 244.273 51.1328 243.945 50.2578C243.672 49.3281 243.535 48.4258 243.535 47.5508C242.715 48.4805 241.812 49.4648 240.828 50.5039C239.898 51.4883 238.887 52.3906 237.793 53.2109C236.754 54.0312 235.605 54.7148 234.348 55.2617C233.145 55.8086 231.887 56.082 230.574 56.082C229.152 56.082 227.922 55.5625 226.883 54.5234C225.844 53.4297 225.324 52.1445 225.324 50.668ZM230.738 48.125C230.738 48.5625 230.738 49.0547 230.738 49.6016C230.793 50.1484 231.148 50.5039 231.805 50.668C233.172 50.3398 234.73 49.6289 236.48 48.5352C238.23 47.3867 239.871 46.0742 241.402 44.5977C242.934 43.0664 244.219 41.4531 245.258 39.7578C246.297 38.0078 246.816 36.3398 246.816 34.7539C246.816 34.6445 246.789 34.4805 246.734 34.2617C246.734 33.9883 246.734 33.7969 246.734 33.6875C244.875 33.6875 242.988 34.0703 241.074 34.8359C239.16 35.6016 237.438 36.668 235.906 38.0352C234.375 39.3477 233.117 40.8789 232.133 42.6289C231.203 44.3789 230.738 46.2109 230.738 48.125Z"/>
    <path d="M278.316 49.6836C278.316 48.043 278.645 46.5391 279.301 45.1719C280.012 43.75 280.777 42.4102 281.598 41.1523C282.418 39.8945 283.156 38.6367 283.812 37.3789C284.523 36.1211 284.879 34.7812 284.879 33.3594C284.879 33.0312 284.852 32.6484 284.797 32.2109C284.797 31.7188 284.742 31.2539 284.633 30.8164C284.578 30.3789 284.414 30.0234 284.141 29.75C283.922 29.4219 283.621 29.2578 283.238 29.2578C283.184 29.2578 283.074 29.2852 282.91 29.3398C282.801 29.3398 282.746 29.3672 282.746 29.4219C281.98 30.4609 281.051 31.6367 279.957 32.9492C278.918 34.207 277.797 35.4648 276.594 36.7227C275.391 37.9805 274.215 39.1836 273.066 40.332C271.918 41.4805 270.879 42.4375 269.949 43.2031C269.293 43.8047 268.391 44.625 267.242 45.6641C266.148 46.7031 265.027 47.7422 263.879 48.7812C262.785 49.7656 261.801 50.6406 260.926 51.4062C260.105 52.1719 259.641 52.5547 259.531 52.5547L255.758 49.3555C256.25 49.3555 256.742 49.2461 257.234 49.0273C257.672 48.8086 258.109 48.5625 258.547 48.2891C261.828 46.1016 264.781 43.5859 267.406 40.7422C270.086 37.8984 272.711 34.8359 275.281 31.5547C275.391 31.3906 275.664 30.9258 276.102 30.1602C276.594 29.3398 277.113 28.4375 277.66 27.4531C278.207 26.4141 278.754 25.4023 279.301 24.418C279.848 23.3789 280.258 22.5586 280.531 21.957C280.859 21.2461 281.051 20.6719 281.105 20.2344C281.215 19.7969 281.297 19.4688 281.352 19.25C281.461 18.9766 281.625 18.7852 281.844 18.6758C282.062 18.5664 282.527 18.5117 283.238 18.5117C283.348 18.5117 283.594 18.5391 283.977 18.5938C284.414 18.6484 284.688 18.7031 284.797 18.7578C285.508 20.2344 286.137 21.5469 286.684 22.6953C287.23 23.8438 287.695 24.9375 288.078 25.9766C288.461 26.9609 288.734 27.9727 288.898 29.0117C289.117 30.0508 289.227 31.1992 289.227 32.457C288.516 34.2617 287.723 36.1211 286.848 38.0352C285.973 39.8945 285.234 41.6719 284.633 43.3672C284.031 45.0625 283.648 46.5938 283.484 47.9609C283.375 49.3281 283.676 50.4219 284.387 51.2422C285.152 52.0078 286.41 52.418 288.16 52.4727C289.965 52.5273 292.508 52.0625 295.789 51.0781C296.664 51.5156 296.746 52.0625 296.035 52.7188C295.324 53.3203 294.23 53.8945 292.754 54.4414C291.332 54.9883 289.746 55.4531 287.996 55.8359C286.301 56.1641 284.879 56.2461 283.73 56.082C282.691 56.082 281.816 55.918 281.105 55.5898C280.449 55.207 279.902 54.7148 279.465 54.1133C279.082 53.5117 278.781 52.8281 278.562 52.0625C278.398 51.2969 278.316 50.5039 278.316 49.6836Z"/>
    <path d="M291.688 48.5352C291.688 48.1523 291.715 47.5781 291.77 46.8125C291.879 45.9922 291.988 45.1992 292.098 44.4336C292.207 43.668 292.316 42.9844 292.426 42.3828C292.535 41.7266 292.645 41.3164 292.754 41.1523L307.684 11.293C307.902 10.8555 308.312 10.2539 308.914 9.48828C309.57 8.66797 310.254 7.84766 310.965 7.02734C311.73 6.15234 312.469 5.35938 313.18 4.64844C313.945 3.88281 314.574 3.28125 315.066 2.84375C315.449 2.95312 315.723 3.14453 315.887 3.41797C316.051 3.69141 316.16 4.01953 316.215 4.40234C316.27 4.73047 316.27 5.05859 316.215 5.38672C316.215 5.71484 316.215 5.98828 316.215 6.20703C316.215 6.48047 316.215 6.86328 316.215 7.35547C316.215 7.84766 316.188 8.09375 316.133 8.09375C315.586 9.57031 314.738 11.3203 313.59 13.3438C312.441 15.3672 311.156 17.5273 309.734 19.8242C308.312 22.1211 306.836 24.5273 305.305 27.043C303.828 29.5039 302.461 31.9648 301.203 34.4258C300 36.832 298.988 39.1562 298.168 41.3984C297.402 43.6406 297.02 45.6914 297.02 47.5508C297.02 48.5352 297.293 49.3281 297.84 49.9297C298.441 50.4766 299.07 50.9688 299.727 51.4062C300.383 51.8438 300.984 52.2812 301.531 52.7188C302.133 53.1562 302.434 53.7578 302.434 54.5234C302.434 55.0156 302.215 55.3984 301.777 55.6719C301.34 55.8906 300.82 56 300.219 56C297.922 56 295.926 55.3711 294.23 54.1133C292.535 52.8008 291.688 50.9414 291.688 48.5352Z"/>
    <path d="M307.684 80.7734C309.434 77.9297 311.457 75.3867 313.754 73.1445C316.051 70.957 318.402 68.8789 320.809 66.9102C323.27 64.9414 325.703 63.0273 328.109 61.168C330.516 59.3086 332.73 57.3125 334.754 55.1797C336.832 53.0469 338.609 50.6953 340.086 48.125C341.562 45.5 342.574 42.4648 343.121 39.0195C343.121 38.9102 343.094 38.7461 343.039 38.5273C343.039 38.2539 343.039 38.0625 343.039 37.9531C341.781 39.4297 340.25 41.0977 338.445 42.957C336.695 44.8164 334.781 46.5664 332.703 48.207C330.68 49.8477 328.547 51.2148 326.305 52.3086C324.062 53.4023 321.875 53.9492 319.742 53.9492C319.195 53.9492 318.484 53.9219 317.609 53.8672C316.789 53.7578 315.969 53.5664 315.148 53.293C314.328 53.0195 313.617 52.6367 313.016 52.1445C312.414 51.6523 312.113 50.9961 312.113 50.1758C312.113 49.4648 312.305 48.3711 312.688 46.8945C313.07 45.418 313.59 43.7773 314.246 41.9727C314.902 40.168 315.641 38.3359 316.461 36.4766C317.281 34.6172 318.156 32.9219 319.086 31.3906C320.016 29.8594 320.918 28.6016 321.793 27.6172C322.723 26.6328 323.57 26.1406 324.336 26.1406C325.102 26.1406 325.758 26.3047 326.305 26.6328C326.852 26.9609 327.125 27.5078 327.125 28.2734C327.125 29.6406 326.633 31.0078 325.648 32.375C324.664 33.7422 323.598 35.2188 322.449 36.8047C321.301 38.3359 320.234 40.0039 319.25 41.8086C318.266 43.6133 317.773 45.6641 317.773 47.9609C321.383 47.9609 324.637 47.2227 327.535 45.7461C330.434 44.2148 333.059 42.3281 335.41 40.0859C337.762 37.8438 339.84 35.4102 341.645 32.7852C343.449 30.1602 345.035 27.7266 346.402 25.4844C347.824 23.2422 349.027 21.3828 350.012 19.9062C351.051 18.375 351.926 17.6094 352.637 17.6094C353.676 17.6094 354.277 17.9375 354.441 18.5938C354.66 19.1953 354.77 19.9609 354.77 20.8906C354.277 22.5859 353.594 24.582 352.719 26.8789C351.844 29.1211 350.941 31.5 350.012 34.0156C349.137 36.4766 348.316 38.9375 347.551 41.3984C346.84 43.8594 346.375 46.1016 346.156 48.125C346.156 48.1797 346.156 48.2617 346.156 48.3711C346.211 48.4805 346.238 48.5625 346.238 48.6172C347.223 48.2891 348.152 47.7148 349.027 46.8945C349.902 46.0742 350.75 45.2539 351.57 44.4336C352.445 43.5586 353.32 42.793 354.195 42.1367C355.07 41.4258 355.973 41.0703 356.902 41.0703C356.957 41.0703 357.148 41.4531 357.477 42.2188C357.859 42.9844 357.859 43.9141 357.477 45.0078C356.984 45.3906 356.082 46.0469 354.77 46.9766C353.512 47.9062 352.172 48.8906 350.75 49.9297C349.328 50.9141 347.988 51.8984 346.73 52.8828C345.473 53.8125 344.598 54.5234 344.105 55.0156C343.34 55.7812 342.547 56.875 341.727 58.2969C340.906 59.7188 340.086 61.3047 339.266 63.0547C338.445 64.8594 337.625 66.7461 336.805 68.7148C336.039 70.6836 335.273 72.5977 334.508 74.457C333.742 76.3711 332.977 78.1211 332.211 79.707C331.5 81.3477 330.844 82.6875 330.242 83.7266C329.969 84.1641 329.395 85.0117 328.52 86.2695C327.699 87.582 326.77 88.9766 325.73 90.4531C324.746 91.9297 323.762 93.3242 322.777 94.6367C321.848 96.0039 321.137 96.9609 320.645 97.5078C320.426 97.7812 319.824 98.4102 318.84 99.3945C317.855 100.434 316.734 101.555 315.477 102.758C314.273 104.016 313.07 105.246 311.867 106.449C310.609 107.652 309.652 108.555 308.996 109.156C308.34 109.539 307.465 110.004 306.371 110.551C305.277 111.152 304.156 111.645 303.008 112.027C301.805 112.41 300.656 112.656 299.562 112.766C298.414 112.875 297.484 112.629 296.773 112.027C296.062 111.48 295.652 110.523 295.543 109.156C295.379 107.844 295.68 105.957 296.445 103.496C297.156 101.09 298.414 98.0273 300.219 94.3086C302.023 90.5898 304.512 86.0781 307.684 80.7734ZM333.441 63.1367C333.332 63.1367 333.141 63.1641 332.867 63.2188C332.648 63.3281 332.484 63.4102 332.375 63.4648C332.266 63.5742 332.02 63.7656 331.637 64.0391C331.254 64.3125 330.816 64.6133 330.324 64.9414C329.887 65.2695 329.449 65.5977 329.012 65.9258C328.629 66.2539 328.355 66.5 328.191 66.6641C326.66 67.7578 324.91 69.2891 322.941 71.2578C320.973 73.2812 318.922 75.4961 316.789 77.9023C314.711 80.3633 312.66 82.9336 310.637 85.6133C308.613 88.3477 306.809 90.9453 305.223 93.4062C303.582 95.9219 302.27 98.2188 301.285 100.297C300.301 102.375 299.781 104.043 299.727 105.301C299.672 106.559 300.191 107.297 301.285 107.516C302.379 107.734 304.238 107.215 306.863 105.957C307.41 105.465 308.203 104.727 309.242 103.742C310.227 102.812 311.211 101.828 312.195 100.789C313.234 99.8047 314.164 98.875 314.984 98C315.805 97.1797 316.297 96.6602 316.461 96.4414C316.734 96.0586 317.172 95.457 317.773 94.6367C318.375 93.8164 319.031 92.8867 319.742 91.8477C320.453 90.8086 321.191 89.7148 321.957 88.5664C322.723 87.418 323.434 86.2969 324.09 85.2031C324.801 84.1641 325.402 83.2344 325.895 82.4141C326.441 81.5938 326.824 80.9648 327.043 80.5273C327.535 79.6523 328.137 78.3945 328.848 76.7539C329.613 75.168 330.324 73.5 330.98 71.75C331.637 70.0547 332.211 68.4141 332.703 66.8281C333.195 65.2422 333.441 64.0117 333.441 63.1367Z"/>
    </mask>
    <path d="M0.148438 36.8867C0.09375 36.668 0.09375 36.3672 0.148438 35.9844C0.203125 35.5469 0.285156 35.1094 0.394531 34.6719C0.503906 34.1797 0.640625 33.7422 0.804688 33.3594C0.96875 32.9766 1.13281 32.7305 1.29688 32.6211C1.29688 32.5664 1.46094 32.5117 1.78906 32.457C2.17188 32.3477 2.47266 32.293 2.69141 32.293C3.56641 32.293 4.25 32.5391 4.74219 33.0312C5.23438 33.5234 5.69922 34.0703 6.13672 34.6719C6.62891 35.2188 7.17578 35.7383 7.77734 36.2305C8.43359 36.7227 9.33594 36.9688 10.4844 36.9688C13.5469 36.9688 16.3633 36.4492 18.9336 35.4102C21.5586 34.3711 23.9922 33.25 26.2344 32.0469C28.5312 30.7891 30.6914 29.6406 32.7148 28.6016C34.793 27.5625 36.8164 27.043 38.7852 27.043C38.7852 27.8086 38.4297 28.6289 37.7188 29.5039C37.0625 30.3789 36.2422 31.2266 35.2578 32.0469C34.3281 32.8672 33.3438 33.6055 32.3047 34.2617C31.3203 34.918 30.5273 35.4102 29.9258 35.7383C28.1211 36.832 26.4805 37.7617 25.0039 38.5273C23.5273 39.2383 22.0234 39.8672 20.4922 40.4141C18.9609 40.9062 17.3477 41.2891 15.6523 41.5625C13.957 41.8359 11.9883 42.0273 9.74609 42.1367C9.96484 42.4102 10.375 42.8477 10.9766 43.4492C11.5781 44.0508 12.207 44.707 12.8633 45.418C13.5742 46.0742 14.2305 46.7031 14.832 47.3047C15.4336 47.9062 15.8711 48.3164 16.1445 48.5352C16.6367 48.9727 17.2109 49.3008 17.8672 49.5195C18.5234 49.6836 19.1797 49.793 19.8359 49.8477C20.5469 49.8477 21.2305 49.8203 21.8867 49.7656C22.5977 49.7109 23.2539 49.6836 23.8555 49.6836C25.2227 49.6836 26.8086 49.6016 28.6133 49.4375C30.4727 49.2188 32.2773 48.8633 34.0273 48.3711C35.7773 47.8242 37.3359 47.0586 38.7031 46.0742C40.125 45.0898 41.1094 43.7773 41.6562 42.1367C41.7656 41.8086 41.957 41.125 42.2305 40.0859C42.5586 39.0469 42.9414 37.8438 43.3789 36.4766C43.8164 35.1094 44.2812 33.6328 44.7734 32.0469C45.2656 30.4609 45.7305 28.9844 46.168 27.6172C46.6055 26.25 46.9883 25.0469 47.3164 24.0078C47.6992 22.9688 47.9453 22.2852 48.0547 21.957C49.0391 19.9883 50.1875 17.9375 51.5 15.8047C52.8672 13.6172 54.3711 11.5938 56.0117 9.73438C57.6523 7.82031 59.4023 6.15234 61.2617 4.73047C63.1211 3.25391 65.0625 2.24219 67.0859 1.69531C69 1.69531 70.3672 2.35156 71.1875 3.66406C72.0625 4.97656 72.5 6.45312 72.5 8.09375C72.5 12.1953 71.6523 16.1875 69.957 20.0703C68.2617 23.9531 66.1016 27.6445 63.4766 31.1445C60.9062 34.6445 58.0352 37.8711 54.8633 40.8242C51.7461 43.7773 48.7383 46.3477 45.8398 48.5352C45.8398 48.6992 45.7852 48.9453 45.6758 49.2734C45.6211 49.5469 45.5391 49.8477 45.4297 50.1758C45.3203 50.5039 45.2109 50.832 45.1016 51.1602C44.9922 51.4336 44.9102 51.625 44.8555 51.7344C44.8008 51.7891 44.7461 51.8164 44.6914 51.8164H44.4453C44.3359 51.8164 44.1992 51.8164 44.0352 51.8164C43.9258 51.7617 43.8438 51.7344 43.7891 51.7344C43.5156 51.6797 42.9688 51.5156 42.1484 51.2422C41.3828 50.9688 40.8633 50.7773 40.5898 50.668C40.0977 50.832 39.25 51.1328 38.0469 51.5703C36.8438 52.0078 35.5586 52.4453 34.1914 52.8828C32.8242 53.3203 31.5391 53.7305 30.3359 54.1133C29.1328 54.4961 28.2852 54.7695 27.793 54.9336C27.6836 54.9883 27.4102 55.0703 26.9727 55.1797C26.5352 55.2344 26.0156 55.3164 25.4141 55.4258C24.8672 55.5352 24.3203 55.6445 23.7734 55.7539C23.2266 55.8633 22.8164 55.9453 22.543 56H21.9688C19.4531 56 17.0742 55.3984 14.832 54.1953C12.5898 52.9375 10.5391 51.3789 8.67969 49.5195C6.875 47.6055 5.23438 45.5273 3.75781 43.2852C2.33594 41.043 1.13281 38.9102 0.148438 36.8867ZM68.6445 6.69922C66.8398 6.69922 65.0352 7.32812 63.2305 8.58594C61.4805 9.78906 59.7852 11.375 58.1445 13.3438C56.5586 15.3125 55.082 17.5547 53.7148 20.0703C52.3477 22.5312 51.1445 25.0195 50.1055 27.5352C49.1211 29.9961 48.3281 32.4023 47.7266 34.7539C47.1797 37.0508 46.9062 38.9922 46.9062 40.5781C46.9062 40.6875 46.9062 40.7969 46.9062 40.9062C46.9609 41.0156 46.9883 41.0977 46.9883 41.1523C50.1055 39.293 52.9766 37.1602 55.6016 34.7539C58.2266 32.293 60.4961 29.5859 62.4102 26.6328C64.3789 23.6797 65.9102 20.5352 67.0039 17.1992C68.0977 13.8633 68.6445 10.3633 68.6445 6.69922Z" stroke="black" stroke-width="10" mask="url(#path-1-inside-1_6_30)"/>
    <path d="M87.9219 16.1328C87.9219 16.9531 87.8125 17.8008 87.5938 18.6758C87.4297 19.5508 87.1016 20.3711 86.6094 21.1367C86.1172 21.9023 85.4609 22.5312 84.6406 23.0234C83.8203 23.5156 82.7812 23.7617 81.5234 23.7617C81.5234 22.9961 81.6055 22.3125 81.7695 21.7109C81.9336 21.0547 82.125 20.4258 82.3438 19.8242C82.5625 19.168 82.7539 18.5117 82.918 17.8555C83.082 17.1445 83.1641 16.3789 83.1641 15.5586C83.1641 13.918 82.8906 12.6328 82.3438 11.7031C81.7969 10.7188 81.1953 9.95312 80.5391 9.40625C79.9375 8.80469 79.3633 8.33984 78.8164 8.01172C78.2695 7.68359 77.9961 7.30078 77.9961 6.86328C77.9961 6.37109 78.1328 5.90625 78.4062 5.46875C78.7344 5.03125 79.2812 4.8125 80.0469 4.8125C81.5234 4.8125 82.7539 5.25 83.7383 6.125C84.7773 6.94531 85.5977 7.95703 86.1992 9.16016C86.8008 10.3633 87.2383 11.6211 87.5117 12.9336C87.7852 14.1914 87.9219 15.2578 87.9219 16.1328Z" stroke="black" stroke-width="10" mask="url(#path-1-inside-1_6_30)"/>
    <path d="M130.004 56.082C128.965 56.082 128.008 55.8906 127.133 55.5078C126.312 55.125 125.629 54.5781 125.082 53.8672C124.535 53.1562 124.152 52.3633 123.934 51.4883C123.715 50.5586 123.742 49.5742 124.016 48.5352C124.016 46.7852 124.316 45.1719 124.918 43.6953C125.574 42.1641 126.285 40.7148 127.051 39.3477C127.871 37.9258 128.582 36.5312 129.184 35.1641C129.84 33.7422 130.168 32.2383 130.168 30.6523C128.965 30.6523 127.68 31.0352 126.312 31.8008C124.945 32.5664 123.551 33.5781 122.129 34.8359C120.762 36.0938 119.395 37.5156 118.027 39.1016C116.715 40.6328 115.457 42.1914 114.254 43.7773C113.105 45.3086 112.094 46.7852 111.219 48.207C110.398 49.6289 109.77 50.8047 109.332 51.7344C109.223 51.7891 108.949 51.8438 108.512 51.8984C108.074 51.8984 107.801 51.8984 107.691 51.8984C106.816 52.3359 106.27 52.3359 106.051 51.8984C105.887 51.4062 105.887 50.668 106.051 49.6836C106.27 48.6992 106.598 47.6055 107.035 46.4023C107.473 45.1445 107.883 43.9688 108.266 42.875C108.703 41.7266 109.031 40.7969 109.25 40.0859C109.469 39.3203 109.496 38.9375 109.332 38.9375C109.496 38.7188 109.688 38.3633 109.906 37.8711C110.125 37.3789 110.344 36.8594 110.562 36.3125C110.781 35.7656 110.973 35.2734 111.137 34.8359C111.301 34.3438 111.383 33.9609 111.383 33.6875C111.383 33.1953 111.191 32.8945 110.809 32.7852C110.48 32.6211 110.152 32.5391 109.824 32.5391C108.84 31.9922 107.773 32.3203 106.625 33.5234C105.531 34.6719 104.328 36.3398 103.016 38.5273C101.758 40.6602 100.363 43.1211 98.832 45.9102C97.3555 48.6445 95.7148 51.2969 93.9102 53.8672C92.6523 53.8672 91.6953 53.7031 91.0391 53.375C90.3828 53.0469 90.0547 52.2266 90.0547 50.9141C90.4922 50.3125 91.1484 49.1914 92.0234 47.5508C92.8984 45.8555 93.8828 43.9961 94.9766 41.9727C96.0703 39.9492 97.2188 37.8984 98.4219 35.8203C99.6797 33.7422 100.855 31.9922 101.949 30.5703C103.098 29.0938 104.109 28.1094 104.984 27.6172C105.914 27.0703 106.652 27.3164 107.199 28.3555C108.129 27.7539 109.141 27.2344 110.234 26.7969C111.383 26.3594 112.531 26.1406 113.68 26.1406C114.445 26.1406 115.074 26.3867 115.566 26.8789C116.113 27.3164 116.523 27.8906 116.797 28.6016C117.125 29.2578 117.371 29.9688 117.535 30.7344C117.699 31.4453 117.781 32.0742 117.781 32.6211C118.383 32.2383 119.367 31.582 120.734 30.6523C122.156 29.668 123.66 28.6836 125.246 27.6992C126.887 26.7148 128.473 25.8672 130.004 25.1562C131.59 24.3906 132.875 24.0078 133.859 24.0078C134.734 24.0078 135.473 24.3359 136.074 24.9922C136.73 25.5938 137.059 26.3594 137.059 27.2891C135.09 32.1016 133.531 35.957 132.383 38.8555C131.289 41.7539 130.551 44.0234 130.168 45.6641C129.84 47.25 129.84 48.3984 130.168 49.1094C130.551 49.7656 131.207 50.2852 132.137 50.668C133.613 50.668 135.035 50.4219 136.402 49.9297C137.77 49.4375 139.109 48.8906 140.422 48.2891C141.789 47.6875 143.156 47.1406 144.523 46.6484C145.891 46.1562 147.34 45.9102 148.871 45.9102C148.871 46.5117 148.707 47.0859 148.379 47.6328C148.105 48.125 147.668 48.5078 147.066 48.7812C146.629 49.0547 145.836 49.4922 144.688 50.0938C143.594 50.6406 142.391 51.2422 141.078 51.8984C139.766 52.5 138.508 53.1016 137.305 53.7031C136.156 54.3047 135.336 54.7148 134.844 54.9336C133.75 55.4258 132.902 55.7539 132.301 55.918C131.754 56.0273 130.988 56.082 130.004 56.082Z" stroke="black" stroke-width="10" mask="url(#path-1-inside-1_6_30)"/>
    <path d="M188.656 46.8945C189.039 43.7227 189.723 40.7148 190.707 37.8711C191.691 34.9727 192.895 32.1836 194.316 29.5039C195.738 26.7695 197.324 24.0898 199.074 21.4648C200.824 18.8398 202.684 16.1875 204.652 13.5078C205.801 12.0312 207.059 10.5273 208.426 8.99609C209.793 7.46484 211.27 6.07031 212.855 4.8125C214.441 3.55469 216.137 2.54297 217.941 1.77734C219.801 0.957031 221.742 0.546875 223.766 0.546875C224.859 0.546875 225.707 0.628906 226.309 0.792969C226.91 0.902344 227.348 1.17578 227.621 1.61328C227.949 1.99609 228.141 2.57031 228.195 3.33594C228.25 4.10156 228.25 5.08594 228.195 6.28906C228.195 7.65625 227.949 9.05078 227.457 10.4727C226.965 11.8945 226.281 13.2344 225.406 14.4922C224.531 15.75 223.492 16.8711 222.289 17.8555C221.086 18.7852 219.801 19.4688 218.434 19.9062V18.7578C218.434 17.6094 218.68 16.5156 219.172 15.4766C219.719 14.4375 220.32 13.3984 220.977 12.3594C221.633 11.2656 222.207 10.1445 222.699 8.99609C223.246 7.84766 223.52 6.61719 223.52 5.30469C222.918 5.30469 222.398 5.27734 221.961 5.22266C221.523 5.11328 221.113 5.05859 220.73 5.05859C220.402 5.00391 220.047 5.05859 219.664 5.22266C219.336 5.33203 218.926 5.60547 218.434 6.04297C215.754 8.23047 212.992 10.8008 210.148 13.7539C207.359 16.6523 204.816 19.7969 202.52 23.1875C200.223 26.5781 198.336 30.1328 196.859 33.8516C195.438 37.5156 194.727 41.207 194.727 44.9258C194.727 45.0898 194.727 45.3633 194.727 45.7461C194.781 46.1289 194.809 46.5117 194.809 46.8945C194.863 47.2773 194.918 47.6328 194.973 47.9609C195.027 48.2891 195.055 48.4805 195.055 48.5352C195.656 49.1367 196.367 49.4922 197.188 49.6016C198.062 49.7109 198.719 49.7656 199.156 49.7656C201.508 49.7656 203.695 49.3555 205.719 48.5352C207.797 47.7148 209.82 46.8398 211.789 45.9102C213.758 44.9258 215.727 44.0234 217.695 43.2031C219.719 42.3828 221.852 41.9727 224.094 41.9727C224.094 42.8477 223.574 43.832 222.535 44.9258C221.551 45.9648 220.238 47.0039 218.598 48.043C217.012 49.082 215.234 50.0938 213.266 51.0781C211.297 52.0078 209.355 52.8555 207.441 53.6211C205.582 54.3867 203.859 54.9883 202.273 55.4258C200.742 55.8633 199.566 56.082 198.746 56.082C197.543 56.082 196.34 55.8633 195.137 55.4258C193.934 54.9336 192.84 54.2773 191.855 53.457C190.926 52.6367 190.16 51.6797 189.559 50.5859C188.957 49.4375 188.656 48.207 188.656 46.8945Z" stroke="black" stroke-width="10" mask="url(#path-1-inside-1_6_30)"/>
    <path d="M225.324 50.668C225.816 47.5508 226.746 44.6797 228.113 42.0547C229.48 39.4297 231.039 37.1602 232.789 35.2461C234.594 33.2773 236.535 31.6641 238.613 30.4062C240.691 29.1484 242.715 28.3555 244.684 28.0273C246.652 27.6445 248.457 27.7266 250.098 28.2734C251.793 28.8203 253.16 29.9141 254.199 31.5547C254.199 32.8125 253.898 34.0156 253.297 35.1641C252.75 36.3125 252.121 37.4609 251.41 38.6094C250.754 39.7578 250.125 40.9336 249.523 42.1367C248.977 43.3398 248.703 44.625 248.703 45.9922C248.703 47.4141 249.004 48.5625 249.605 49.4375C250.262 50.2578 251.383 50.668 252.969 50.668C254.281 50.668 255.539 50.4766 256.742 50.0938C258 49.7109 259.258 49.5195 260.516 49.5195C260.734 49.5195 261.09 49.5469 261.582 49.6016C262.129 49.6016 262.484 49.6016 262.648 49.6016C261.992 50.5312 261.145 51.3242 260.105 51.9805C259.066 52.6367 257.973 53.2109 256.824 53.7031C255.676 54.1406 254.473 54.4688 253.215 54.6875C252.012 54.9062 250.891 55.0156 249.852 55.0156C248.867 55.0156 247.992 54.7969 247.227 54.3594C246.461 53.9219 245.805 53.3477 245.258 52.6367C244.711 51.9258 244.273 51.1328 243.945 50.2578C243.672 49.3281 243.535 48.4258 243.535 47.5508C242.715 48.4805 241.812 49.4648 240.828 50.5039C239.898 51.4883 238.887 52.3906 237.793 53.2109C236.754 54.0312 235.605 54.7148 234.348 55.2617C233.145 55.8086 231.887 56.082 230.574 56.082C229.152 56.082 227.922 55.5625 226.883 54.5234C225.844 53.4297 225.324 52.1445 225.324 50.668ZM230.738 48.125C230.738 48.5625 230.738 49.0547 230.738 49.6016C230.793 50.1484 231.148 50.5039 231.805 50.668C233.172 50.3398 234.73 49.6289 236.48 48.5352C238.23 47.3867 239.871 46.0742 241.402 44.5977C242.934 43.0664 244.219 41.4531 245.258 39.7578C246.297 38.0078 246.816 36.3398 246.816 34.7539C246.816 34.6445 246.789 34.4805 246.734 34.2617C246.734 33.9883 246.734 33.7969 246.734 33.6875C244.875 33.6875 242.988 34.0703 241.074 34.8359C239.16 35.6016 237.438 36.668 235.906 38.0352C234.375 39.3477 233.117 40.8789 232.133 42.6289C231.203 44.3789 230.738 46.2109 230.738 48.125Z" stroke="black" stroke-width="10" mask="url(#path-1-inside-1_6_30)"/>
    <path d="M278.316 49.6836C278.316 48.043 278.645 46.5391 279.301 45.1719C280.012 43.75 280.777 42.4102 281.598 41.1523C282.418 39.8945 283.156 38.6367 283.812 37.3789C284.523 36.1211 284.879 34.7812 284.879 33.3594C284.879 33.0312 284.852 32.6484 284.797 32.2109C284.797 31.7188 284.742 31.2539 284.633 30.8164C284.578 30.3789 284.414 30.0234 284.141 29.75C283.922 29.4219 283.621 29.2578 283.238 29.2578C283.184 29.2578 283.074 29.2852 282.91 29.3398C282.801 29.3398 282.746 29.3672 282.746 29.4219C281.98 30.4609 281.051 31.6367 279.957 32.9492C278.918 34.207 277.797 35.4648 276.594 36.7227C275.391 37.9805 274.215 39.1836 273.066 40.332C271.918 41.4805 270.879 42.4375 269.949 43.2031C269.293 43.8047 268.391 44.625 267.242 45.6641C266.148 46.7031 265.027 47.7422 263.879 48.7812C262.785 49.7656 261.801 50.6406 260.926 51.4062C260.105 52.1719 259.641 52.5547 259.531 52.5547L255.758 49.3555C256.25 49.3555 256.742 49.2461 257.234 49.0273C257.672 48.8086 258.109 48.5625 258.547 48.2891C261.828 46.1016 264.781 43.5859 267.406 40.7422C270.086 37.8984 272.711 34.8359 275.281 31.5547C275.391 31.3906 275.664 30.9258 276.102 30.1602C276.594 29.3398 277.113 28.4375 277.66 27.4531C278.207 26.4141 278.754 25.4023 279.301 24.418C279.848 23.3789 280.258 22.5586 280.531 21.957C280.859 21.2461 281.051 20.6719 281.105 20.2344C281.215 19.7969 281.297 19.4688 281.352 19.25C281.461 18.9766 281.625 18.7852 281.844 18.6758C282.062 18.5664 282.527 18.5117 283.238 18.5117C283.348 18.5117 283.594 18.5391 283.977 18.5938C284.414 18.6484 284.688 18.7031 284.797 18.7578C285.508 20.2344 286.137 21.5469 286.684 22.6953C287.23 23.8438 287.695 24.9375 288.078 25.9766C288.461 26.9609 288.734 27.9727 288.898 29.0117C289.117 30.0508 289.227 31.1992 289.227 32.457C288.516 34.2617 287.723 36.1211 286.848 38.0352C285.973 39.8945 285.234 41.6719 284.633 43.3672C284.031 45.0625 283.648 46.5938 283.484 47.9609C283.375 49.3281 283.676 50.4219 284.387 51.2422C285.152 52.0078 286.41 52.418 288.16 52.4727C289.965 52.5273 292.508 52.0625 295.789 51.0781C296.664 51.5156 296.746 52.0625 296.035 52.7188C295.324 53.3203 294.23 53.8945 292.754 54.4414C291.332 54.9883 289.746 55.4531 287.996 55.8359C286.301 56.1641 284.879 56.2461 283.73 56.082C282.691 56.082 281.816 55.918 281.105 55.5898C280.449 55.207 279.902 54.7148 279.465 54.1133C279.082 53.5117 278.781 52.8281 278.562 52.0625C278.398 51.2969 278.316 50.5039 278.316 49.6836Z" stroke="black" stroke-width="10" mask="url(#path-1-inside-1_6_30)"/>
    <path d="M291.688 48.5352C291.688 48.1523 291.715 47.5781 291.77 46.8125C291.879 45.9922 291.988 45.1992 292.098 44.4336C292.207 43.668 292.316 42.9844 292.426 42.3828C292.535 41.7266 292.645 41.3164 292.754 41.1523L307.684 11.293C307.902 10.8555 308.312 10.2539 308.914 9.48828C309.57 8.66797 310.254 7.84766 310.965 7.02734C311.73 6.15234 312.469 5.35938 313.18 4.64844C313.945 3.88281 314.574 3.28125 315.066 2.84375C315.449 2.95312 315.723 3.14453 315.887 3.41797C316.051 3.69141 316.16 4.01953 316.215 4.40234C316.27 4.73047 316.27 5.05859 316.215 5.38672C316.215 5.71484 316.215 5.98828 316.215 6.20703C316.215 6.48047 316.215 6.86328 316.215 7.35547C316.215 7.84766 316.188 8.09375 316.133 8.09375C315.586 9.57031 314.738 11.3203 313.59 13.3438C312.441 15.3672 311.156 17.5273 309.734 19.8242C308.312 22.1211 306.836 24.5273 305.305 27.043C303.828 29.5039 302.461 31.9648 301.203 34.4258C300 36.832 298.988 39.1562 298.168 41.3984C297.402 43.6406 297.02 45.6914 297.02 47.5508C297.02 48.5352 297.293 49.3281 297.84 49.9297C298.441 50.4766 299.07 50.9688 299.727 51.4062C300.383 51.8438 300.984 52.2812 301.531 52.7188C302.133 53.1562 302.434 53.7578 302.434 54.5234C302.434 55.0156 302.215 55.3984 301.777 55.6719C301.34 55.8906 300.82 56 300.219 56C297.922 56 295.926 55.3711 294.23 54.1133C292.535 52.8008 291.688 50.9414 291.688 48.5352Z" stroke="black" stroke-width="10" mask="url(#path-1-inside-1_6_30)"/>
    <path d="M307.684 80.7734C309.434 77.9297 311.457 75.3867 313.754 73.1445C316.051 70.957 318.402 68.8789 320.809 66.9102C323.27 64.9414 325.703 63.0273 328.109 61.168C330.516 59.3086 332.73 57.3125 334.754 55.1797C336.832 53.0469 338.609 50.6953 340.086 48.125C341.562 45.5 342.574 42.4648 343.121 39.0195C343.121 38.9102 343.094 38.7461 343.039 38.5273C343.039 38.2539 343.039 38.0625 343.039 37.9531C341.781 39.4297 340.25 41.0977 338.445 42.957C336.695 44.8164 334.781 46.5664 332.703 48.207C330.68 49.8477 328.547 51.2148 326.305 52.3086C324.062 53.4023 321.875 53.9492 319.742 53.9492C319.195 53.9492 318.484 53.9219 317.609 53.8672C316.789 53.7578 315.969 53.5664 315.148 53.293C314.328 53.0195 313.617 52.6367 313.016 52.1445C312.414 51.6523 312.113 50.9961 312.113 50.1758C312.113 49.4648 312.305 48.3711 312.688 46.8945C313.07 45.418 313.59 43.7773 314.246 41.9727C314.902 40.168 315.641 38.3359 316.461 36.4766C317.281 34.6172 318.156 32.9219 319.086 31.3906C320.016 29.8594 320.918 28.6016 321.793 27.6172C322.723 26.6328 323.57 26.1406 324.336 26.1406C325.102 26.1406 325.758 26.3047 326.305 26.6328C326.852 26.9609 327.125 27.5078 327.125 28.2734C327.125 29.6406 326.633 31.0078 325.648 32.375C324.664 33.7422 323.598 35.2188 322.449 36.8047C321.301 38.3359 320.234 40.0039 319.25 41.8086C318.266 43.6133 317.773 45.6641 317.773 47.9609C321.383 47.9609 324.637 47.2227 327.535 45.7461C330.434 44.2148 333.059 42.3281 335.41 40.0859C337.762 37.8438 339.84 35.4102 341.645 32.7852C343.449 30.1602 345.035 27.7266 346.402 25.4844C347.824 23.2422 349.027 21.3828 350.012 19.9062C351.051 18.375 351.926 17.6094 352.637 17.6094C353.676 17.6094 354.277 17.9375 354.441 18.5938C354.66 19.1953 354.77 19.9609 354.77 20.8906C354.277 22.5859 353.594 24.582 352.719 26.8789C351.844 29.1211 350.941 31.5 350.012 34.0156C349.137 36.4766 348.316 38.9375 347.551 41.3984C346.84 43.8594 346.375 46.1016 346.156 48.125C346.156 48.1797 346.156 48.2617 346.156 48.3711C346.211 48.4805 346.238 48.5625 346.238 48.6172C347.223 48.2891 348.152 47.7148 349.027 46.8945C349.902 46.0742 350.75 45.2539 351.57 44.4336C352.445 43.5586 353.32 42.793 354.195 42.1367C355.07 41.4258 355.973 41.0703 356.902 41.0703C356.957 41.0703 357.148 41.4531 357.477 42.2188C357.859 42.9844 357.859 43.9141 357.477 45.0078C356.984 45.3906 356.082 46.0469 354.77 46.9766C353.512 47.9062 352.172 48.8906 350.75 49.9297C349.328 50.9141 347.988 51.8984 346.73 52.8828C345.473 53.8125 344.598 54.5234 344.105 55.0156C343.34 55.7812 342.547 56.875 341.727 58.2969C340.906 59.7188 340.086 61.3047 339.266 63.0547C338.445 64.8594 337.625 66.7461 336.805 68.7148C336.039 70.6836 335.273 72.5977 334.508 74.457C333.742 76.3711 332.977 78.1211 332.211 79.707C331.5 81.3477 330.844 82.6875 330.242 83.7266C329.969 84.1641 329.395 85.0117 328.52 86.2695C327.699 87.582 326.77 88.9766 325.73 90.4531C324.746 91.9297 323.762 93.3242 322.777 94.6367C321.848 96.0039 321.137 96.9609 320.645 97.5078C320.426 97.7812 319.824 98.4102 318.84 99.3945C317.855 100.434 316.734 101.555 315.477 102.758C314.273 104.016 313.07 105.246 311.867 106.449C310.609 107.652 309.652 108.555 308.996 109.156C308.34 109.539 307.465 110.004 306.371 110.551C305.277 111.152 304.156 111.645 303.008 112.027C301.805 112.41 300.656 112.656 299.562 112.766C298.414 112.875 297.484 112.629 296.773 112.027C296.062 111.48 295.652 110.523 295.543 109.156C295.379 107.844 295.68 105.957 296.445 103.496C297.156 101.09 298.414 98.0273 300.219 94.3086C302.023 90.5898 304.512 86.0781 307.684 80.7734ZM333.441 63.1367C333.332 63.1367 333.141 63.1641 332.867 63.2188C332.648 63.3281 332.484 63.4102 332.375 63.4648C332.266 63.5742 332.02 63.7656 331.637 64.0391C331.254 64.3125 330.816 64.6133 330.324 64.9414C329.887 65.2695 329.449 65.5977 329.012 65.9258C328.629 66.2539 328.355 66.5 328.191 66.6641C326.66 67.7578 324.91 69.2891 322.941 71.2578C320.973 73.2812 318.922 75.4961 316.789 77.9023C314.711 80.3633 312.66 82.9336 310.637 85.6133C308.613 88.3477 306.809 90.9453 305.223 93.4062C303.582 95.9219 302.27 98.2188 301.285 100.297C300.301 102.375 299.781 104.043 299.727 105.301C299.672 106.559 300.191 107.297 301.285 107.516C302.379 107.734 304.238 107.215 306.863 105.957C307.41 105.465 308.203 104.727 309.242 103.742C310.227 102.812 311.211 101.828 312.195 100.789C313.234 99.8047 314.164 98.875 314.984 98C315.805 97.1797 316.297 96.6602 316.461 96.4414C316.734 96.0586 317.172 95.457 317.773 94.6367C318.375 93.8164 319.031 92.8867 319.742 91.8477C320.453 90.8086 321.191 89.7148 321.957 88.5664C322.723 87.418 323.434 86.2969 324.09 85.2031C324.801 84.1641 325.402 83.2344 325.895 82.4141C326.441 81.5938 326.824 80.9648 327.043 80.5273C327.535 79.6523 328.137 78.3945 328.848 76.7539C329.613 75.168 330.324 73.5 330.98 71.75C331.637 70.0547 332.211 68.4141 332.703 66.8281C333.195 65.2422 333.441 64.0117 333.441 63.1367Z" stroke="black" stroke-width="10" mask="url(#path-1-inside-1_6_30)"/>
    </svg>